# xmcd CD database file
#
# Track frame offsets:
#	150
#	19660
#	36023
#	52934
#	71056
#	88164
#	103163
#	120057
#	135270
#	154616
#	175228
#	191019
#	207279
#	223071
#	235707
#	252012
#	269519
#	285509
#	299967
#	314256
#
# Disc length: 4410 seconds
#
# Revision: 0
# Processed by: cddbd v1.5.2PL0 Copyright (c) Steve Scherf et al.
# Submitted via: CDex 1.70beta2
#
DISCID=21113814
DTITLE=Diverse - Schlager Sommer 2007
DYEAR=2007
DGENRE=Country
TTITLE0=Nik P. - Ein Stern, der Deinen Namen trägt
TTITLE1=Lollies - Z´ruck zu Dir (Hallo Klaus)
TTITLE2=Sina - Heut´Abend hab´ich Kopfweh
TTITLE3=Nico Gemba - König der Piraten
TTITLE4=Lukas Bach - Wahnsinn Dich zu lieben
TTITLE5=Hanns Martell - Flammen einer Sommernacht
TTITLE6=Roberto Falcone - Gloria
TTITLE7=Ivo - Mendocino 2006
TTITLE8=Aleks Schmidt Feat. Michelle Faye - Das erste Mal tat´s noch weh
TTITLE9=Rocking Son - Moskau
TTITLE10=Two 4 Pop - Küss mich
TTITLE11=Hugo Bär - Jetzt oder nie
TTITLE12=Cordalis - Weißer Anzug
TTITLE13=Windows - Sommerwein
TTITLE14=Magic Lauster - Einspruch abgelehnt
TTITLE15=Dreiecksbeziehung - Mausi
TTITLE16=Reiner Irrsinn - Eine weiße Rose
TTITLE17=George Le Bonsai - Ich un - Rendezvous
TTITLE18=Thomas Döring - Wer nicht aufsteht hat verloren
TTITLE19=PS Alex - Eine Frau, die mich nach Hause trägt
EXTD=YEAR: 2007
EXTT0=
EXTT1=
EXTT2=
EXTT3=
EXTT4=
EXTT5=
EXTT6=
EXTT7=
EXTT8=
EXTT9=
EXTT10=
EXTT11=
EXTT12=
EXTT13=
EXTT14=
EXTT15=
EXTT16=
EXTT17=
EXTT18=
EXTT19=
PLAYORDER=
